<mxfile host="app.diagrams.net" modified="2024-07-22T10:30:13.765Z" agent="Mozilla/5.0 (Windows NT 10.0; Win64; x64) AppleWebKit/537.36 (KHTML, like Gecko) Chrome/126.0.0.0 Safari/537.36 Edg/126.0.0.0" version="24.3.1" etag="aRorwB6LJ7gioN668vAW" type="github">
  <diagram name="Seite-1" id="FeN77DmquAUr8D4zDcbp">
    <mxGraphModel>
      <root>
        <mxCell id="0" />
        <mxCell id="1" parent="0" />
      </root>
    </mxGraphModel>
  </diagram>
</mxfile>
